<svg width="33" height="34" viewBox="0 0 33 34" fill="none" xmlns="http://www.w3.org/2000/svg">
<path fill-rule="evenodd" clip-rule="evenodd" d="M4.62363 33.1843C3.11263 33.1843 1.96429 32.7145 1.17857 31.7751C0.392857 30.8357 0 29.5779 0 28.0021V6.68232C0 5.10645 0.287088 3.83361 0.861264 2.86385C1.46566 1.86378 2.23627 1.13645 3.17308 0.681869C4.14011 0.227289 5.1827 0 6.30082 0C7.96291 0 9.36813 0.439426 10.5165 1.31828C11.6648 2.19714 12.5563 3.74271 13.1909 5.95499L18.0865 22.729H18.8118V5.27312C18.8118 3.66694 19.2198 2.40927 20.0357 1.50011C20.8516 0.560647 22.0151 0.0909142 23.5261 0.0909142C25.0975 0.0909142 26.261 0.560647 27.0165 1.50011C27.8022 2.40927 28.1951 3.66694 28.1951 5.27312V7.17038C26.9897 7.64303 26.1358 8.8193 26.1358 10.1956C26.1358 11.5718 26.9897 12.7481 28.1951 13.2207V25.8201C28.1951 28.3658 27.6359 30.2447 26.5179 31.4569C25.3998 32.6691 23.8283 33.2752 21.8036 33.2752C19.7486 33.2752 18.147 32.7297 16.9986 31.6387C15.8502 30.5477 14.9739 28.9415 14.3695 26.8202L11.1511 15.7739C11.0907 15.4709 10.9698 15.1982 10.7885 14.9557C10.6374 14.6829 10.4258 14.5465 10.1538 14.5465C9.82142 14.5465 9.59478 14.6829 9.4739 14.9557C9.35303 15.1982 9.29258 15.4709 9.29258 15.7739V28.0021C9.29258 29.5779 8.89973 30.8357 8.11401 31.7751C7.32829 32.7145 6.16484 33.1843 4.62363 33.1843ZM28.1951 13.2207C28.5603 13.364 28.9578 13.4426 29.3736 13.4426C31.1618 13.4426 32.6115 11.9888 32.6115 10.1956C32.6115 8.4023 31.1618 6.94857 29.3736 6.94857C28.9578 6.94857 28.5603 7.02718 28.1951 7.17038V13.2207ZM9.16954 13.4426C10.9577 13.4426 12.4074 11.9888 12.4074 10.1956C12.4074 8.4023 10.9577 6.94857 9.16954 6.94857C7.38134 6.94857 5.93171 8.4023 5.93171 10.1956C5.93171 11.9888 7.38134 13.4426 9.16954 13.4426Z" fill="#330000"/>
</svg>
